<svg xmlns="http://www.w3.org/2000/svg" viewBox="0 0 32 32">
    <path d="m28.031 5.586-1.617-1.617a6.718 6.718 0 0 0-9.503 0l-3.236 3.235a1 1 0 0 0 1.414 1.414l3.236-3.235a4.719 4.719 0 0 1 6.675 0L26.617 7a4.719 4.719 0 0 1 0 6.675l-4.852 4.853a4.72 4.72 0 0 1-6.676 0l-1.618-1.617a1 1 0 1 0-1.414 1.414l1.618 1.617a6.719 6.719 0 0 0 9.504 0l4.852-4.853a6.718 6.718 0 0 0 0-9.503Z" fill='#504BDE'/>
    <path d="m16.911 23.382-3.236 3.235a4.72 4.72 0 0 1-6.675 0L5.382 25a4.72 4.72 0 0 1 0-6.675l4.854-4.853a4.72 4.72 0 0 1 6.675 0l1.617 1.617a1 1 0 0 0 1.414-1.414l-1.617-1.617a6.719 6.719 0 0 0-9.503 0L3.968 16.91a6.72 6.72 0 0 0 0 9.503l1.618 1.617a6.719 6.719 0 0 0 9.503 0l3.236-3.235a1 1 0 0 0-1.414-1.414Z" fill='#504BDE'/>
</svg>